<svg width="800" height="500" xmlns="http://www.w3.org/2000/svg">
      <defs>
        <linearGradient id="bg2" x1="0%" y1="0%" x2="100%" y2="100%">
          <stop offset="0%" stop-color="#0a0a0f"/>
          <stop offset="100%" stop-color="#18181b"/>
        </linearGradient>
      </defs>
      <rect width="800" height="500" fill="url(#bg2)"/>
      <rect width="800" height="40" fill="#1e1e24"/>
      <circle cx="25" cy="20" r="6" fill="#ef4444"/>
      <circle cx="45" cy="20" r="6" fill="#f59e0b"/>
      <circle cx="65" cy="20" r="6" fill="#10b981"/>
      <text x="400" y="25" font-family="system-ui, sans-serif" font-size="12" fill="#71717a" text-anchor="middle">Job Genie — AI Career Recommendation Engine</text>
      <rect x="40" y="60" width="720" height="400" rx="16" fill="#0f0f13" stroke="#27272a"/>
      <!-- Header search bar -->
      <rect x="60" y="80" width="680" height="48" rx="24" fill="#1f1f27" stroke="#3f3f46"/>
      <text x="90" y="110" font-family="system-ui" font-size="13" fill="#a1a1aa">Fullstack AI Engineer • Remote • $140k+</text>
      <rect x="620" y="86" width="110" height="36" rx="18" fill="#8b5cf6"/>
      <text x="675" y="109" font-family="system-ui" font-size="12" font-weight="bold" fill="#ffffff" text-anchor="middle">Search AI</text>
      <!-- Job cards -->
      <rect x="60" y="145" width="330" height="140" rx="12" fill="#181820" stroke="#8b5cf6" stroke-width="1.5"/>
      <text x="80" y="175" font-family="system-ui" font-size="15" font-weight="bold" fill="#ffffff">Senior AI Fullstack Lead</text>
      <text x="80" y="195" font-family="system-ui" font-size="12" fill="#a1a1aa">Anthropic Partner • San Francisco</text>
      <rect x="80" y="215" width="70" height="22" rx="6" fill="#8b5cf6" opacity="0.2"/>
      <text x="115" y="230" font-family="monospace" font-size="10" fill="#a78bfa" text-anchor="middle">98% Match</text>
      <rect x="160" y="215" width="80" height="22" rx="6" fill="#10b981" opacity="0.2"/>
      <text x="200" y="230" font-family="monospace" font-size="10" fill="#34d399" text-anchor="middle">$160k - $190k</text>

      <rect x="410" y="145" width="330" height="140" rx="12" fill="#181820" stroke="#27272a"/>
      <text x="430" y="175" font-family="system-ui" font-size="15" font-weight="bold" fill="#ffffff">GenAI Systems Architect</text>
      <text x="430" y="195" font-family="system-ui" font-size="12" fill="#a1a1aa">OpenAI Ecosystem • Remote</text>
      <rect x="430" y="215" width="70" height="22" rx="6" fill="#8b5cf6" opacity="0.2"/>
      <text x="465" y="230" font-family="monospace" font-size="10" fill="#a78bfa" text-anchor="middle">94% Match</text>

      <rect x="60" y="300" width="330" height="140" rx="12" fill="#181820" stroke="#27272a"/>
      <text x="80" y="330" font-family="system-ui" font-size="15" font-weight="bold" fill="#ffffff">MERN Fullstack Developer</text>
      <text x="80" y="350" font-family="system-ui" font-size="12" fill="#a1a1aa">Tech Unicorn • New York</text>

      <rect x="410" y="300" width="330" height="140" rx="12" fill="#181820" stroke="#27272a"/>
      <text x="430" y="330" font-family="system-ui" font-size="15" font-weight="bold" fill="#ffffff">Python &amp; ML Engineer</text>
      <text x="430" y="350" font-family="system-ui" font-size="12" fill="#a1a1aa">AI Labs • London / Remote</text>
    </svg>